<svg id="ua" width="20" height="20" viewBox="0 0 20 20" fill="none" xmlns="http://www.w3.org/2000/svg">
<path d="M9.96664 20C14.3333 20 18.0333 17.2 19.4 13.3333H19.4333C19.8 12.3 20 10 20 10H0C6.24149e-08 11.3204 0.19997 12.3 0.566637 13.3333C1.9333 17.2333 5.6333 20 9.96664 20Z" fill="#FBE253"/>
<path d="M9.96664 0C5.6333 0 1.9333 2.8 0.566637 6.66667C0.19997 7.7 -6.24149e-08 8.67958 0 10H20C20 10 19.8 7.7 19.4333 6.66667C18.0333 2.8 14.3333 0 9.96664 0Z" fill="#3B60BD"/>
</svg>

<svg id="ru" width="20" height="20" viewBox="0 0 20 20" fill="none" xmlns="http://www.w3.org/2000/svg">
<path d="M9.96667 0C5.63333 0 1.93333 2.8 0.566667 6.66667H19.4333C18.0333 2.8 14.3333 0 9.96667 0Z" fill="#F9F9F9"/>
<path d="M9.96667 20C14.3333 20 18.0333 17.2 19.4 13.3333H0.566667C1.93333 17.2333 5.63333 20 9.96667 20Z" fill="#ED4C5C"/>
<path d="M0.566667 6.66667C0.2 7.7 0 8.83333 0 10C0 11.1667 0.2 12.3 0.566667 13.3333L19.4333 13.3333C19.8 12.3 20 11.1667 20 10C20 8.83333 19.8 7.7 19.4333 6.66667H0.566667Z" fill="#428BC1"/>
</svg>

<svg id="en" width="20" height="20" viewBox="0 0 20 20" fill="none" xmlns="http://www.w3.org/2000/svg">
<path d="M6.66667 19.4333V14.8333L3.23333 17.3667C4.2 18.2667 5.36667 18.9667 6.66667 19.4333ZM13.3333 19.4333C14.6333 18.9667 15.8 18.2667 16.7667 17.3667L13.3333 14.8V19.4333ZM0.566667 13.3333C0.666667 13.6667 0.8 13.9667 0.966667 14.3L2.26667 13.3333H0.566667ZM17.7333 13.3333L19.0333 14.3C19.1667 14 19.3 13.6667 19.4333 13.3333H17.7333Z" fill="#2A5F9E"/>
<path d="M0.2 12C0.3 12.4667 0.433333 12.9 0.566667 13.3333H2.26667L0.966667 14.3C1.23333 14.8667 1.53333 15.3667 1.9 15.8667L5.33333 13.3333H6.66667V14L2.76667 16.8667L3.23333 17.3333L6.66667 14.8333V19.4333C7.1 19.6 7.53333 19.7 8 19.8V12H0.2ZM19.8 12H12V19.8C12.4667 19.7 12.9 19.5667 13.3333 19.4333V14.8333L16.7667 17.3333C17.2333 16.9 17.6333 16.4333 18.0333 15.9333L14.4667 13.3333H16.7333L18.7667 14.8333C18.8667 14.6667 18.9667 14.4667 19.0333 14.3L17.7333 13.3333H19.4333C19.5667 12.9 19.7 12.4667 19.8 12Z" fill="white"/>
<path d="M1.9 15.8667C2.16667 16.2333 2.43333 16.5667 2.73333 16.9L6.66667 14.0333V13.3667H5.33333L1.9 15.8667ZM14.5 13.3333L18.0667 15.9333C18.2 15.7667 18.3 15.6 18.4333 15.4333C18.4667 15.4 18.4667 15.3667 18.5 15.3667C18.6 15.2 18.7333 15 18.8333 14.8333L16.7333 13.3333H14.5Z" fill="#ED4C5C"/>
<path d="M13.3333 0.566667V5.16667L16.7667 2.63333C15.8 1.73333 14.6333 1.03333 13.3333 0.566667ZM6.66667 0.566667C5.36667 1.03333 4.2 1.73333 3.23333 2.63333L6.66667 5.2V0.566667ZM19.4333 6.66667C19.3333 6.33333 19.2 6.03333 19.0333 5.7L17.7333 6.66667H19.4333ZM2.26667 6.66667L0.966667 5.7C0.833333 6.03333 0.7 6.33333 0.566667 6.66667H2.26667Z" fill="#2A5F9E"/>
<path d="M19.7667 8C19.6667 7.53333 19.5333 7.1 19.4 6.66667H17.7L19 5.7C18.7333 5.13333 18.4333 4.63333 18.0667 4.13333L14.6667 6.66667H13.3333V6L17.2333 3.13333L16.7667 2.66667L13.3333 5.16667V0.566667C12.9 0.4 12.4667 0.3 12 0.2V8H19.7667ZM0.2 8H8V0.2C7.53333 0.3 7.1 0.433333 6.66667 0.566667V5.16667L3.23333 2.66667C2.76667 3.1 2.36667 3.56667 1.96667 4.06667L5.53333 6.66667H3.26667L1.23333 5.16667C1.13333 5.33333 1.03333 5.53333 0.966667 5.7L2.26667 6.66667H0.566667C0.433333 7.1 0.3 7.53333 0.2 8Z" fill="white"/>
<path d="M18.1 4.13333C17.8333 3.76667 17.5667 3.43333 17.2667 3.1L13.3333 5.96667V6.63333H14.6667L18.1 4.13333ZM5.5 6.66667L1.96667 4.06667C1.83333 4.23333 1.73333 4.4 1.6 4.56667C1.56667 4.6 1.56667 4.63333 1.53333 4.63333C1.43333 4.8 1.3 5 1.2 5.16667L3.23333 6.66667H5.5Z" fill="#ED4C5C"/>
<path d="M19.8 8H12V0.2C11.3667 0.0666667 10.7 0 10 0C9.3 0 8.63333 0.0666667 8 0.2V8H0.2C0.0666667 8.63333 0 9.3 0 10C0 10.7 0.0666667 11.3667 0.2 12H8V19.8C8.63333 19.9333 9.3 20 10 20C10.7 20 11.3667 19.9333 12 19.8V12H19.8C19.9333 11.3667 20 10.7 20 10C20 9.3 19.9333 8.63333 19.8 8Z" fill="#ED4C5C"/>
</svg>

<svg id="tg" width="24" height="24" viewBox="0 0 24 24" fill="none" xmlns="http://www.w3.org/2000/svg">
<g clip-path="url(#clip0_245_988)">
<g clip-path="url(#clip1_245_988)">
<path d="M12 0C5.376 0 0 5.376 0 12C0 18.624 5.376 24 12 24C18.624 24 24 18.624 24 12C24 5.376 18.624 0 12 0ZM17.568 8.16C17.388 10.056 16.608 14.664 16.212 16.788C16.044 17.688 15.708 17.988 15.396 18.024C14.7 18.084 14.172 17.568 13.5 17.124C12.444 16.428 11.844 15.996 10.824 15.324C9.636 14.544 10.404 14.112 11.088 13.416C11.268 13.236 14.34 10.44 14.4 10.188C14.4083 10.1498 14.4072 10.1102 14.3968 10.0726C14.3863 10.0349 14.3668 10.0004 14.34 9.972C14.268 9.912 14.172 9.936 14.088 9.948C13.98 9.972 12.3 11.088 9.024 13.296C8.544 13.62 8.112 13.788 7.728 13.776C7.296 13.764 6.48 13.536 5.868 13.332C5.112 13.092 4.524 12.96 4.572 12.54C4.596 12.324 4.896 12.108 5.46 11.88C8.964 10.356 11.292 9.348 12.456 8.868C15.792 7.476 16.476 7.236 16.932 7.236C17.028 7.236 17.256 7.26 17.4 7.38C17.52 7.476 17.556 7.608 17.568 7.704C17.556 7.776 17.58 7.992 17.568 8.16Z" fill="#ECF1F0"/>
</g>
</g>
<defs>
<clipPath id="clip0_245_988">
<rect width="24" height="24" fill="white"/>
</clipPath>
<clipPath id="clip1_245_988">
<rect width="24" height="24" fill="white"/>
</clipPath>
</defs>
</svg>

<svg id="wa" width="24" height="24" viewBox="0 0 24 24" fill="none" xmlns="http://www.w3.org/2000/svg">
<g clip-path="url(#clip0_245_987)">
<path fill-rule="evenodd" clip-rule="evenodd" d="M17.415 14.382C17.117 14.233 15.656 13.515 15.384 13.415C15.112 13.316 14.914 13.267 14.715 13.565C14.517 13.861 13.948 14.531 13.775 14.729C13.601 14.928 13.428 14.952 13.131 14.804C12.834 14.654 11.876 14.341 10.741 13.329C9.858 12.541 9.261 11.568 9.088 11.27C8.915 10.973 9.069 10.812 9.218 10.664C9.352 10.531 9.515 10.317 9.664 10.144C9.813 9.97004 9.862 9.84604 9.961 9.64704C10.061 9.44904 10.011 9.27604 9.936 9.12704C9.862 8.97804 9.268 7.51504 9.02 6.92004C8.779 6.34104 8.534 6.42004 8.352 6.41004C8.178 6.40204 7.98 6.40004 7.782 6.40004C7.584 6.40004 7.262 6.47404 6.99 6.77204C6.717 7.06904 5.95 7.78804 5.95 9.25104C5.95 10.713 7.014 12.126 7.163 12.325C7.312 12.523 9.258 15.525 12.239 16.812C12.949 17.118 13.502 17.301 13.933 17.437C14.645 17.664 15.293 17.632 15.805 17.555C16.375 17.47 17.563 16.836 17.811 16.142C18.058 15.448 18.058 14.853 17.984 14.729C17.91 14.605 17.712 14.531 17.414 14.382H17.415ZM11.993 21.785H11.989C10.2184 21.7854 8.48037 21.3094 6.957 20.407L6.597 20.193L2.855 21.175L3.854 17.527L3.619 17.153C2.62914 15.5774 2.10529 13.7538 2.108 11.893C2.11 6.44304 6.544 2.00904 11.997 2.00904C14.637 2.00904 17.119 3.03904 18.985 4.90704C19.9054 5.82362 20.6349 6.91361 21.1313 8.11394C21.6277 9.31427 21.8811 10.6011 21.877 11.9C21.875 17.35 17.441 21.785 11.993 21.785ZM20.405 3.48804C19.3032 2.37896 17.9922 1.49958 16.5481 0.900841C15.1039 0.302105 13.5553 -0.00407625 11.992 4.09775e-05C5.438 4.09775e-05 0.102 5.33504 0.1 11.892C0.096963 13.9788 0.644374 16.0294 1.687 17.837L0 24L6.304 22.346C8.04787 23.2962 10.0021 23.794 11.988 23.794H11.993C18.547 23.794 23.883 18.459 23.885 11.901C23.8898 10.3383 23.5848 8.79014 22.9874 7.34607C22.3901 5.90201 21.5124 4.59071 20.405 3.48804Z" fill="#ECF1F0"/>
</g>
<defs>
<clipPath id="clip0_245_987">
<rect width="24" height="24" fill="white"/>
</clipPath>
</defs>
</svg>

<svg id="yt" width="24" height="24" viewBox="0 0 24 24" fill="none" xmlns="http://www.w3.org/2000/svg">
<g clip-path="url(#clip0_245_986)">
<path d="M14.0037 11.7913L11.1963 10.4813C10.9513 10.3675 10.75 10.495 10.75 10.7662V13.2338C10.75 13.505 10.9513 13.6325 11.1963 13.5188L14.0025 12.2087C14.2488 12.0938 14.2487 11.9063 14.0037 11.7913ZM12 0C5.3725 0 0 5.3725 0 12C0 18.6275 5.3725 24 12 24C18.6275 24 24 18.6275 24 12C24 5.3725 18.6275 0 12 0ZM12 16.875C5.8575 16.875 5.75 16.3213 5.75 12C5.75 7.67875 5.8575 7.125 12 7.125C18.1425 7.125 18.25 7.67875 18.25 12C18.25 16.3213 18.1425 16.875 12 16.875Z" fill="#ECF1F0"/>
</g>
<defs>
<clipPath id="clip0_245_986">
<rect width="24" height="24" fill="white"/>
</clipPath>
</defs>
</svg>

<svg id="twt" width="24" height="24" viewBox="0 0 24 24" fill="none" xmlns="http://www.w3.org/2000/svg">
<g clip-path="url(#clip0_245_990)">
<path d="M12 0C5.3725 0 0 5.3725 0 12C0 18.6275 5.3725 24 12 24C18.6275 24 24 18.6275 24 12C24 5.3725 18.6275 0 12 0ZM16.8813 9.83C16.8862 9.9325 16.8875 10.035 16.8875 10.135C16.8875 13.26 14.5113 16.8612 10.1638 16.8612C8.87912 16.8634 7.62121 16.4944 6.54125 15.7987C6.725 15.8212 6.91375 15.83 7.105 15.83C8.2125 15.83 9.23125 15.4538 10.04 14.8188C9.54715 14.8091 9.06959 14.6459 8.67389 14.3519C8.27819 14.0579 7.98406 13.6478 7.8325 13.1788C8.18644 13.2461 8.55106 13.2319 8.89875 13.1375C8.36381 13.0293 7.88275 12.7395 7.53714 12.3171C7.19152 11.8947 7.00263 11.3658 7.0025 10.82V10.7913C7.32125 10.9675 7.68625 11.075 8.07375 11.0875C7.57225 10.7537 7.21723 10.2408 7.08131 9.65392C6.94538 9.06699 7.03881 8.45032 7.3425 7.93C7.93619 8.66 8.67658 9.25718 9.51571 9.68289C10.3548 10.1086 11.274 10.3533 12.2137 10.4012C12.0943 9.89414 12.1457 9.36176 12.36 8.88688C12.5743 8.412 12.9395 8.02124 13.3988 7.77533C13.8582 7.52942 14.3858 7.44215 14.8999 7.52709C15.4139 7.61203 15.8855 7.86441 16.2412 8.245C16.7702 8.14034 17.2775 7.94632 17.7413 7.67125C17.565 8.21892 17.1958 8.68397 16.7025 8.98C17.1711 8.92356 17.6286 8.7976 18.06 8.60625C17.7431 9.08112 17.3439 9.49555 16.8813 9.83Z" fill="#ECF1F0"/>
</g>
<defs>
<clipPath id="clip0_245_990">
<rect width="24" height="24" fill="white"/>
</clipPath>
</defs>
</svg>

<svg id="client" width="226" height="48" viewBox="0 0 226 48" fill="none" xmlns="http://www.w3.org/2000/svg">
<g clip-path="url(#clip0_885_3215)">
<path d="M1 14.4678H5.38012V18.2355H5.45697C5.91803 16.8038 8.9918 13.865 13.4488 13.865C17.1373 13.865 19.5963 15.3721 21.21 18.3862C21.993 17.021 23.1308 15.8835 24.5075 15.0894C25.8843 14.2953 27.4509 13.8728 29.0482 13.865C36.6557 13.865 38.5 19.2151 38.5 24.6405V38.8069H33.8125V25.2433C33.8125 21.551 33.0441 18.1601 28.5102 18.1601C23.9764 18.1601 22.209 21.1743 22.209 25.4694V38.8069H17.5215V26.0722C17.5215 21.4757 16.8299 18.1601 12.2961 18.1601C8.91496 18.1601 5.84119 20.6468 5.84119 26.1476V38.8069H1V14.4678Z" fill="#D4D4D4"/>
<path d="M46.5686 28.3328C46.5686 32.6279 50.5645 35.416 54.9446 35.416C57.8647 35.416 59.9395 33.9843 61.7838 31.799L65.3186 34.4364C62.7059 37.7519 59.0942 39.4097 54.3299 39.4097C46.4918 39.4097 41.5737 33.8336 41.5737 26.5997C41.5737 19.3657 46.9528 13.7896 54.4067 13.7896C63.167 13.7896 66.4713 20.3453 66.4713 26.5997V28.2574L46.5686 28.3328ZM61.3996 24.6405C61.3227 20.5714 59.0174 17.5573 54.253 17.5573C52.2924 17.5538 50.4046 18.2853 48.9761 19.6021C47.5475 20.9189 46.6862 22.7214 46.5686 24.6405H61.3996Z" fill="#D4D4D4"/>
<path d="M82.7623 18.4615H76V29.4631C76 32.1758 76 35.0392 79.5348 35.0392C80.7102 35.0873 81.8773 34.8271 82.916 34.2857V38.5055C81.5751 39.0472 80.1398 39.3287 78.6896 39.3344C71.3893 39.3344 71.3125 34.9639 71.3125 31.0455V18.4615H65.8566V14.4678H71.3125V7.61066H76V14.4678H82.7623V18.4615Z" fill="#D4D4D4"/>
<path d="M86.2971 17.482C89.0182 15.1436 92.5151 13.8577 96.1332 13.865C103.433 13.865 106.507 17.7834 106.507 22.0032V34.4365C106.507 35.9213 106.584 37.4051 106.738 38.8823H102.588C102.511 37.6766 102.434 36.3956 102.434 35.19H102.358C100.283 38.3548 97.4396 39.4851 93.6742 39.4851C89.0635 39.4851 85.0676 36.9231 85.0676 32.1759C85.0676 25.9215 91.2152 23.7363 98.7459 23.7363H102.204V22.6813C102.204 20.1947 100.36 17.5573 96.2869 17.5573C92.6752 17.5573 90.9846 19.0644 89.2172 20.3454L86.2971 17.482ZM99.668 27.1272C95.2111 27.1272 89.7551 27.8807 89.7551 31.7991C89.7551 34.5872 91.8299 35.7175 95.0574 35.7175C100.283 35.7175 102.127 31.9498 102.127 28.6343V27.1272H99.668Z" fill="#D4D4D4"/>
<path d="M124.719 20.5714C124.125 19.8088 123.357 19.1934 122.476 18.7747C121.595 18.3559 120.626 18.1454 119.648 18.1601C117.419 18.1601 115.498 19.1397 115.498 20.8728C115.498 23.8116 119.724 24.1884 121.799 24.6405C125.872 25.6201 129.023 27.1272 129.023 31.7237C129.023 37.2245 123.874 39.4097 118.956 39.4097C114.883 39.4097 111.809 38.3548 109.35 35.1146L112.885 32.2512C114.422 33.7582 116.19 35.1146 118.879 35.1146C121.261 35.1146 123.874 34.135 123.874 32.0251C123.874 29.237 119.955 28.7096 117.88 28.2575C113.884 27.2779 110.273 25.9969 110.273 21.325C110.273 16.2763 115.037 13.865 119.724 13.865C123.029 13.865 126.41 14.9953 128.177 17.8587L124.719 20.5714Z" fill="#D4D4D4"/>
<path d="M132.096 14.4678H136.784V17.9341H136.861C137.879 16.6516 139.185 15.617 140.678 14.9112C142.171 14.2054 143.81 13.8473 145.467 13.865C153.152 13.865 158.07 19.4411 158.07 26.6751C158.07 33.909 153.075 39.4851 145.467 39.4851C141.932 39.4851 138.474 37.9027 136.861 35.3407H136.784V48H132.096V14.4678ZM136.861 26.5997C136.861 31.4977 140.011 35.0393 145.006 35.0393C150.001 35.0393 153.152 31.573 153.152 26.5997C153.152 21.6264 150.001 18.1601 144.929 18.1601C139.858 18.1601 136.861 21.7017 136.861 26.5997V26.5997Z" fill="#D4D4D4"/>
<path d="M161.835 0H166.523V38.8069H161.835V0Z" fill="#D4D4D4"/>
<path d="M181.968 13.865C185.447 13.8849 188.775 15.2564 191.224 17.6789C193.672 20.1013 195.042 23.377 195.032 26.7878C195.021 30.1987 193.633 33.4665 191.169 35.8748C188.706 38.2832 185.37 39.6356 181.891 39.6356C178.413 39.6356 175.076 38.2832 172.613 35.8748C170.15 33.4665 168.761 30.1987 168.751 26.7878C168.741 23.377 170.11 20.1013 172.559 17.6789C175.008 15.2564 178.336 13.8849 181.814 13.865H181.968ZM181.968 35.1146C186.963 35.1146 190.114 31.573 190.114 26.675C190.114 21.7771 186.963 18.2355 181.968 18.2355C176.973 18.2355 173.823 21.7771 173.823 26.675C173.823 31.573 176.973 35.1146 181.968 35.1146Z" fill="#D4D4D4"/>
<path d="M199.796 2.33594C200.48 2.33594 201.149 2.53481 201.717 2.90741C202.286 3.28 202.729 3.80959 202.991 4.42919C203.253 5.0488 203.321 5.73059 203.188 6.38836C203.054 7.04613 202.725 7.65033 202.241 8.12456C201.758 8.59878 201.142 8.92173 200.471 9.05257C199.8 9.18341 199.105 9.11626 198.473 8.85961C197.841 8.60296 197.301 8.16834 196.921 7.61071C196.541 7.05308 196.338 6.39749 196.338 5.72683C196.36 4.83413 196.731 3.98383 197.375 3.35242C198.019 2.72101 198.886 2.357 199.796 2.33594V2.33594ZM197.414 14.4678H202.101V38.8069H197.414V14.4678Z" fill="#D4D4D4"/>
<path d="M220.775 18.4615H214.012V29.4631C214.012 32.1758 214.012 35.0392 217.547 35.0392C218.722 35.0873 219.89 34.8271 220.928 34.2857V38.5055C219.587 39.0472 218.152 39.3287 216.702 39.3344C209.402 39.3344 209.325 34.9639 209.325 31.0455V18.4615H203.869V14.4678H209.325V7.61066H214.012V14.4678H220.775V18.4615Z" fill="#D4D4D4"/>
<path d="M222.311 0.301392C223.041 0.301392 223.754 0.513522 224.361 0.910958C224.967 1.30839 225.44 1.87329 225.719 2.5342C225.998 3.19511 226.071 3.92236 225.929 4.62398C225.787 5.3256 225.435 5.97008 224.92 6.47592C224.404 6.98176 223.747 7.32624 223.031 7.4658C222.316 7.60536 221.574 7.53373 220.9 7.25998C220.226 6.98622 219.65 6.52262 219.245 5.92782C218.839 5.33301 218.623 4.63371 218.623 3.91835V3.91835C218.637 2.96331 219.03 2.05123 219.719 1.37585C220.407 0.70047 221.338 0.315023 222.311 0.301392V0.301392ZM222.311 7.00783C222.726 7.01186 223.138 6.93469 223.522 6.78086C223.906 6.62703 224.255 6.39961 224.548 6.11192C224.842 5.82423 225.074 5.48204 225.231 5.10539C225.387 4.72874 225.466 4.32518 225.462 3.91835C225.462 3.09896 225.13 2.31314 224.539 1.73375C223.948 1.15436 223.147 0.828864 222.311 0.828864C221.476 0.828864 220.674 1.15436 220.084 1.73375C219.493 2.31314 219.161 3.09896 219.161 3.91835C219.165 4.73651 219.498 5.52003 220.088 6.09856C220.678 6.67709 221.477 7.00387 222.311 7.00783V7.00783ZM221.543 5.95288H221.005V1.80846H222.619C223.541 1.80846 223.925 2.18522 223.925 2.93875C223.924 3.23314 223.815 3.51729 223.617 3.73884C223.419 3.96039 223.147 4.10443 222.849 4.1444L224.156 5.95288H223.541L222.311 4.1444H221.543V5.95288ZM221.543 3.69229H222.235C222.849 3.69229 223.464 3.69229 223.464 2.93875C223.464 2.41128 223.003 2.26057 222.542 2.26057H221.543V3.69229Z" fill="#D4D4D4"/>
</g>
<defs>
<clipPath id="clip0_885_3215">
<rect width="225" height="48" fill="white" transform="translate(1)"/>
</clipPath>
</defs>
</svg>

<svg id="anon" width="100" height="101" viewBox="0 0 100 101" fill="none" xmlns="http://www.w3.org/2000/svg">
<circle cx="50" cy="50.5" r="50" fill="white" fill-opacity="0.1"/>
<g clip-path="url(#clip0_4114_202)">
<path d="M72 52.9C72 58.6287 69.6821 64.1227 65.5563 68.1735C61.4305 72.2243 55.8348 74.5 50 74.5C44.1652 74.5 38.5695 72.2243 34.4437 68.1735C30.3179 64.1227 28 58.6287 28 52.9L28.0733 32.332C34.5511 28.612 42.08 26.5 50.1222 26.5C58.0667 26.5 65.5467 28.588 72 32.212V52.9ZM52.4444 69.532C60.7311 68.356 67.1111 61.3 67.1111 52.9V35.116C61.9778 32.668 56.2089 31.3 50.1222 31.3C43.8889 31.3 37.9733 32.74 32.7422 35.284L32.8889 52.9C32.8889 61.3 39.3178 68.356 47.5556 69.532V64.9H52.4444V69.532ZM47.5556 60.1H40.2222L35.3333 52.9L42.6667 55.3H45.1111L47.5556 52.9H52.4444L54.8889 55.3H57.3333L64.6667 52.9L59.7778 60.1H52.4444L50 57.7L47.5556 60.1ZM35.3333 43.372C36.8978 41.86 39 41.02 41.4444 41.02C43.7667 41.02 45.9422 41.86 47.5556 43.372C45.9422 44.86 43.7667 45.7 41.4444 45.7C39 45.7 36.8978 44.86 35.3333 43.372ZM52.4444 43.372C54.0089 41.86 56.1111 41.02 58.5556 41.02C60.8778 41.02 63.0533 41.86 64.6667 43.372C63.0533 44.86 60.8778 45.7 58.5556 45.7C56.1111 45.7 54.0089 44.86 52.4444 43.372Z" fill="#ECF1F0"/>
</g>
<defs>
<clipPath id="clip0_4114_202">
<rect width="48" height="48" fill="white" transform="translate(26 26.5)"/>
</clipPath>
</defs>
</svg>

<svg id="check" width="100" height="100" viewBox="0 0 100 100" fill="none" xmlns="http://www.w3.org/2000/svg">
<circle cx="50" cy="50" r="50" fill="white" fill-opacity="0.1"/>
<g clip-path="url(#clip0_4114_167)">
<path d="M27.44 42H30.8C31.064 42 31.28 41.775 31.28 41.5V30.5H41.84C42.104 30.5 42.32 30.275 42.32 30V26.5C42.32 26.225 42.104 26 41.84 26H31.04C28.784 26 26.96 27.9 26.96 30.25V41.5C26.96 41.775 27.176 42 27.44 42ZM58.16 30.5H68.72V41.5C68.72 41.775 68.936 42 69.2 42H72.56C72.824 42 73.04 41.775 73.04 41.5V30.25C73.04 27.9 71.216 26 68.96 26H58.16C57.896 26 57.68 26.225 57.68 26.5V30C57.68 30.275 57.896 30.5 58.16 30.5ZM41.84 69.5H31.28V58.5C31.28 58.225 31.064 58 30.8 58H27.44C27.176 58 26.96 58.225 26.96 58.5V69.75C26.96 72.1 28.784 74 31.04 74H41.84C42.104 74 42.32 73.775 42.32 73.5V70C42.32 69.725 42.104 69.5 41.84 69.5ZM72.56 58H69.2C68.936 58 68.72 58.225 68.72 58.5V69.5H58.16C57.896 69.5 57.68 69.725 57.68 70V73.5C57.68 73.775 57.896 74 58.16 74H68.96C71.216 74 73.04 72.1 73.04 69.75V58.5C73.04 58.225 72.824 58 72.56 58ZM73.52 47.75H26.48C26.216 47.75 26 47.975 26 48.25V51.75C26 52.025 26.216 52.25 26.48 52.25H73.52C73.784 52.25 74 52.025 74 51.75V48.25C74 47.975 73.784 47.75 73.52 47.75Z" fill="#ECF1F0"/>
</g>
<defs>
<clipPath id="clip0_4114_167">
<rect width="48" height="48" fill="white" transform="translate(26 26)"/>
</clipPath>
</defs>
</svg>

<svg id="protect" width="100" height="100" viewBox="0 0 100 100" fill="none" xmlns="http://www.w3.org/2000/svg">
<circle cx="50" cy="50" r="50" fill="white" fill-opacity="0.1"/>
<path d="M45.3333 38.2182L43.5556 39.9636L46.2222 42.5818C45.1111 43.2364 44.2222 44.3273 43.7778 45.6364H38.8889V47.8182H43.3333V50H38.8889V52.1818H43.3333V54.3636H38.8889V56.5455H43.7778C44.6667 59.1636 47.1111 60.9091 50 60.9091C52.8889 60.9091 55.3333 59.1636 56.2222 56.5455H61.1111V54.3636H56.6667V52.1818H61.1111V50H56.6667V47.8182H61.1111V45.6364H56.2222C55.7778 44.3273 54.8889 43.2364 53.7778 42.3636L56.4444 39.7455L54.8889 38.2182L51.7778 41.2727H50C49.5556 41.2727 48.8889 41.2727 48.4444 41.4909L45.3333 38.2182ZM47.7778 47.8182H52.2222V50H47.7778V47.8182ZM47.7778 52.1818H52.2222V54.3636H47.7778V52.1818ZM70 47.8182C70 59.8182 61.5556 71.1636 50 74C38.4444 71.1636 30 59.8182 30 47.8182V34.7273L50 26L70 34.7273V47.8182ZM50 69.6364C58.4444 67.4545 65.5556 57.6364 65.5556 48.2545V37.5636L50 30.8L34.4444 37.5636V48.2545C34.4444 57.6364 41.5556 67.4545 50 69.6364Z" fill="#ECF1F0"/>
</svg>

<svg id="adress" width="24" height="24" viewBox="0 0 24 24" fill="none" xmlns="http://www.w3.org/2000/svg">
<g clip-path="url(#clip0_885_3167)">
<path d="M12 21C10.7369 19.9226 9.56619 18.7415 8.5 17.469C6.9 15.558 5 12.712 5 9.99997C4.99931 8.61493 5.40951 7.26082 6.17869 6.109C6.94788 4.95718 8.04147 4.05943 9.32107 3.52937C10.6007 2.99931 12.0087 2.86076 13.3671 3.13126C14.7255 3.40176 15.9731 4.06915 16.952 5.04897C17.6038 5.69783 18.1203 6.46951 18.4719 7.31934C18.8234 8.16918 19.0029 9.0803 19 9.99997C19 12.712 17.1 15.558 15.5 17.469C14.4338 18.7415 13.2631 19.9226 12 21ZM12 6.99997C11.2044 6.99997 10.4413 7.31604 9.87868 7.87865C9.31607 8.44126 9 9.20432 9 9.99997C9 10.7956 9.31607 11.5587 9.87868 12.1213C10.4413 12.6839 11.2044 13 12 13C12.7957 13 13.5587 12.6839 14.1213 12.1213C14.6839 11.5587 15 10.7956 15 9.99997C15 9.20432 14.6839 8.44126 14.1213 7.87865C13.5587 7.31604 12.7957 6.99997 12 6.99997Z" fill="#D4D4D4"/>
</g>
<defs>
<clipPath id="clip0_885_3167">
<rect width="24" height="24" rx="12" fill="white"/>
</clipPath>
</defs>
</svg>

<svg id="tel" width="24" height="24" viewBox="0 0 24 24" fill="none" xmlns="http://www.w3.org/2000/svg">
<path d="M20 10.999H22C22 5.869 18.127 2 12.99 2V4C17.052 4 20 6.943 20 10.999Z" fill="#D4D4D4"/>
<path d="M13 7.99999C15.103 7.99999 16 8.89699 16 11H18C18 7.77499 16.225 5.99999 13 5.99999V7.99999ZM16.422 13.443C16.2299 13.2683 15.9774 13.1752 15.7178 13.1832C15.4583 13.1912 15.212 13.2998 15.031 13.486L12.638 15.947C12.062 15.837 10.904 15.476 9.71204 14.287C8.52004 13.094 8.15904 11.933 8.05204 11.361L10.511 8.96699C10.6975 8.78612 10.8062 8.53982 10.8142 8.2802C10.8222 8.02059 10.7289 7.76804 10.554 7.57599L6.85904 3.51299C6.68408 3.32035 6.44092 3.2035 6.18119 3.18725C5.92146 3.17101 5.66564 3.25665 5.46804 3.42599L3.29804 5.28699C3.12515 5.46051 3.02196 5.69145 3.00804 5.93599C2.99304 6.18599 2.70704 12.108 7.29904 16.702C11.305 20.707 16.323 21 17.705 21C17.907 21 18.031 20.994 18.064 20.992C18.3086 20.9783 18.5394 20.8747 18.712 20.701L20.572 18.53C20.7415 18.3325 20.8273 18.0768 20.8113 17.817C20.7952 17.5573 20.6785 17.3141 20.486 17.139L16.422 13.443Z" fill="#D4D4D4"/>
</svg>

<svg id="mail" width="24" height="24" viewBox="0 0 24 24" fill="none" xmlns="http://www.w3.org/2000/svg">
<path d="M20 4H6C4.897 4 4 4.897 4 6V11H6V8L12.4 12.8C12.5732 12.9297 12.7837 12.9998 13 12.9998C13.2163 12.9998 13.4268 12.9297 13.6 12.8L20 8V17H12V19H20C21.103 19 22 18.103 22 17V6C22 4.897 21.103 4 20 4ZM13 10.75L6.666 6H19.334L13 10.75Z" fill="#D4D4D4"/>
<path d="M2 12H9V14H2V12ZM4 15H10V17H4V15ZM7 18H11V20H7V18Z" fill="#D4D4D4"/>
</svg>