<svg id="svg1" width="20" height="20" viewBox="0 0 20 20" fill="none" xmlns="http://www.w3.org/2000/svg">
<path d="M9.96664 20C14.3333 20 18.0333 17.2 19.4 13.3333H19.4333C19.8 12.3 20 10 20 10H0C6.24149e-08 11.3204 0.19997 12.3 0.566637 13.3333C1.9333 17.2333 5.6333 20 9.96664 20Z" fill="#FBE253"/>
<path d="M9.96664 0C5.6333 0 1.9333 2.8 0.566637 6.66667C0.19997 7.7 -6.24149e-08 8.67958 0 10H20C20 10 19.8 7.7 19.4333 6.66667C18.0333 2.8 14.3333 0 9.96664 0Z" fill="#3B60BD"/>
</svg>

<svg id="svg2" width="20" height="20" viewBox="0 0 20 20" fill="none" xmlns="http://www.w3.org/2000/svg">
<path d="M9.96667 0C5.63333 0 1.93333 2.8 0.566667 6.66667H19.4333C18.0333 2.8 14.3333 0 9.96667 0Z" fill="#F9F9F9"/>
<path d="M9.96667 20C14.3333 20 18.0333 17.2 19.4 13.3333H0.566667C1.93333 17.2333 5.63333 20 9.96667 20Z" fill="#ED4C5C"/>
<path d="M0.566667 6.66667C0.2 7.7 0 8.83333 0 10C0 11.1667 0.2 12.3 0.566667 13.3333L19.4333 13.3333C19.8 12.3 20 11.1667 20 10C20 8.83333 19.8 7.7 19.4333 6.66667H0.566667Z" fill="#428BC1"/>
</svg>

<svg id="svg3" width="20" height="20" viewBox="0 0 20 20" fill="none" xmlns="http://www.w3.org/2000/svg">
<path d="M6.66667 19.4333V14.8333L3.23333 17.3667C4.2 18.2667 5.36667 18.9667 6.66667 19.4333ZM13.3333 19.4333C14.6333 18.9667 15.8 18.2667 16.7667 17.3667L13.3333 14.8V19.4333ZM0.566667 13.3333C0.666667 13.6667 0.8 13.9667 0.966667 14.3L2.26667 13.3333H0.566667ZM17.7333 13.3333L19.0333 14.3C19.1667 14 19.3 13.6667 19.4333 13.3333H17.7333Z" fill="#2A5F9E"/>
<path d="M0.2 12C0.3 12.4667 0.433333 12.9 0.566667 13.3333H2.26667L0.966667 14.3C1.23333 14.8667 1.53333 15.3667 1.9 15.8667L5.33333 13.3333H6.66667V14L2.76667 16.8667L3.23333 17.3333L6.66667 14.8333V19.4333C7.1 19.6 7.53333 19.7 8 19.8V12H0.2ZM19.8 12H12V19.8C12.4667 19.7 12.9 19.5667 13.3333 19.4333V14.8333L16.7667 17.3333C17.2333 16.9 17.6333 16.4333 18.0333 15.9333L14.4667 13.3333H16.7333L18.7667 14.8333C18.8667 14.6667 18.9667 14.4667 19.0333 14.3L17.7333 13.3333H19.4333C19.5667 12.9 19.7 12.4667 19.8 12Z" fill="white"/>
<path d="M1.9 15.8667C2.16667 16.2333 2.43333 16.5667 2.73333 16.9L6.66667 14.0333V13.3667H5.33333L1.9 15.8667ZM14.5 13.3333L18.0667 15.9333C18.2 15.7667 18.3 15.6 18.4333 15.4333C18.4667 15.4 18.4667 15.3667 18.5 15.3667C18.6 15.2 18.7333 15 18.8333 14.8333L16.7333 13.3333H14.5Z" fill="#ED4C5C"/>
<path d="M13.3333 0.566667V5.16667L16.7667 2.63333C15.8 1.73333 14.6333 1.03333 13.3333 0.566667ZM6.66667 0.566667C5.36667 1.03333 4.2 1.73333 3.23333 2.63333L6.66667 5.2V0.566667ZM19.4333 6.66667C19.3333 6.33333 19.2 6.03333 19.0333 5.7L17.7333 6.66667H19.4333ZM2.26667 6.66667L0.966667 5.7C0.833333 6.03333 0.7 6.33333 0.566667 6.66667H2.26667Z" fill="#2A5F9E"/>
<path d="M19.7667 8C19.6667 7.53333 19.5333 7.1 19.4 6.66667H17.7L19 5.7C18.7333 5.13333 18.4333 4.63333 18.0667 4.13333L14.6667 6.66667H13.3333V6L17.2333 3.13333L16.7667 2.66667L13.3333 5.16667V0.566667C12.9 0.4 12.4667 0.3 12 0.2V8H19.7667ZM0.2 8H8V0.2C7.53333 0.3 7.1 0.433333 6.66667 0.566667V5.16667L3.23333 2.66667C2.76667 3.1 2.36667 3.56667 1.96667 4.06667L5.53333 6.66667H3.26667L1.23333 5.16667C1.13333 5.33333 1.03333 5.53333 0.966667 5.7L2.26667 6.66667H0.566667C0.433333 7.1 0.3 7.53333 0.2 8Z" fill="white"/>
<path d="M18.1 4.13333C17.8333 3.76667 17.5667 3.43333 17.2667 3.1L13.3333 5.96667V6.63333H14.6667L18.1 4.13333ZM5.5 6.66667L1.96667 4.06667C1.83333 4.23333 1.73333 4.4 1.6 4.56667C1.56667 4.6 1.56667 4.63333 1.53333 4.63333C1.43333 4.8 1.3 5 1.2 5.16667L3.23333 6.66667H5.5Z" fill="#ED4C5C"/>
<path d="M19.8 8H12V0.2C11.3667 0.0666667 10.7 0 10 0C9.3 0 8.63333 0.0666667 8 0.2V8H0.2C0.0666667 8.63333 0 9.3 0 10C0 10.7 0.0666667 11.3667 0.2 12H8V19.8C8.63333 19.9333 9.3 20 10 20C10.7 20 11.3667 19.9333 12 19.8V12H19.8C19.9333 11.3667 20 10.7 20 10C20 9.3 19.9333 8.63333 19.8 8Z" fill="#ED4C5C"/>
</svg>

<svg id="tg" width="24" height="24" viewBox="0 0 24 24" fill="none" xmlns="http://www.w3.org/2000/svg">
<g clip-path="url(#clip0_245_988)">
<g clip-path="url(#clip1_245_988)">
<path d="M12 0C5.376 0 0 5.376 0 12C0 18.624 5.376 24 12 24C18.624 24 24 18.624 24 12C24 5.376 18.624 0 12 0ZM17.568 8.16C17.388 10.056 16.608 14.664 16.212 16.788C16.044 17.688 15.708 17.988 15.396 18.024C14.7 18.084 14.172 17.568 13.5 17.124C12.444 16.428 11.844 15.996 10.824 15.324C9.636 14.544 10.404 14.112 11.088 13.416C11.268 13.236 14.34 10.44 14.4 10.188C14.4083 10.1498 14.4072 10.1102 14.3968 10.0726C14.3863 10.0349 14.3668 10.0004 14.34 9.972C14.268 9.912 14.172 9.936 14.088 9.948C13.98 9.972 12.3 11.088 9.024 13.296C8.544 13.62 8.112 13.788 7.728 13.776C7.296 13.764 6.48 13.536 5.868 13.332C5.112 13.092 4.524 12.96 4.572 12.54C4.596 12.324 4.896 12.108 5.46 11.88C8.964 10.356 11.292 9.348 12.456 8.868C15.792 7.476 16.476 7.236 16.932 7.236C17.028 7.236 17.256 7.26 17.4 7.38C17.52 7.476 17.556 7.608 17.568 7.704C17.556 7.776 17.58 7.992 17.568 8.16Z" fill="#ECF1F0"/>
</g>
</g>
<defs>
<clipPath id="clip0_245_988">
<rect width="24" height="24" fill="white"/>
</clipPath>
<clipPath id="clip1_245_988">
<rect width="24" height="24" fill="white"/>
</clipPath>
</defs>
</svg>

<svg id="wa" width="24" height="24" viewBox="0 0 24 24" fill="none" xmlns="http://www.w3.org/2000/svg">
<g clip-path="url(#clip0_245_987)">
<path fill-rule="evenodd" clip-rule="evenodd" d="M17.415 14.382C17.117 14.233 15.656 13.515 15.384 13.415C15.112 13.316 14.914 13.267 14.715 13.565C14.517 13.861 13.948 14.531 13.775 14.729C13.601 14.928 13.428 14.952 13.131 14.804C12.834 14.654 11.876 14.341 10.741 13.329C9.858 12.541 9.261 11.568 9.088 11.27C8.915 10.973 9.069 10.812 9.218 10.664C9.352 10.531 9.515 10.317 9.664 10.144C9.813 9.97004 9.862 9.84604 9.961 9.64704C10.061 9.44904 10.011 9.27604 9.936 9.12704C9.862 8.97804 9.268 7.51504 9.02 6.92004C8.779 6.34104 8.534 6.42004 8.352 6.41004C8.178 6.40204 7.98 6.40004 7.782 6.40004C7.584 6.40004 7.262 6.47404 6.99 6.77204C6.717 7.06904 5.95 7.78804 5.95 9.25104C5.95 10.713 7.014 12.126 7.163 12.325C7.312 12.523 9.258 15.525 12.239 16.812C12.949 17.118 13.502 17.301 13.933 17.437C14.645 17.664 15.293 17.632 15.805 17.555C16.375 17.47 17.563 16.836 17.811 16.142C18.058 15.448 18.058 14.853 17.984 14.729C17.91 14.605 17.712 14.531 17.414 14.382H17.415ZM11.993 21.785H11.989C10.2184 21.7854 8.48037 21.3094 6.957 20.407L6.597 20.193L2.855 21.175L3.854 17.527L3.619 17.153C2.62914 15.5774 2.10529 13.7538 2.108 11.893C2.11 6.44304 6.544 2.00904 11.997 2.00904C14.637 2.00904 17.119 3.03904 18.985 4.90704C19.9054 5.82362 20.6349 6.91361 21.1313 8.11394C21.6277 9.31427 21.8811 10.6011 21.877 11.9C21.875 17.35 17.441 21.785 11.993 21.785ZM20.405 3.48804C19.3032 2.37896 17.9922 1.49958 16.5481 0.900841C15.1039 0.302105 13.5553 -0.00407625 11.992 4.09775e-05C5.438 4.09775e-05 0.102 5.33504 0.1 11.892C0.096963 13.9788 0.644374 16.0294 1.687 17.837L0 24L6.304 22.346C8.04787 23.2962 10.0021 23.794 11.988 23.794H11.993C18.547 23.794 23.883 18.459 23.885 11.901C23.8898 10.3383 23.5848 8.79014 22.9874 7.34607C22.3901 5.90201 21.5124 4.59071 20.405 3.48804Z" fill="#ECF1F0"/>
</g>
<defs>
<clipPath id="clip0_245_987">
<rect width="24" height="24" fill="white"/>
</clipPath>
</defs>
</svg>

<svg id="yt" width="24" height="24" viewBox="0 0 24 24" fill="none" xmlns="http://www.w3.org/2000/svg">
<g clip-path="url(#clip0_245_986)">
<path d="M14.0037 11.7913L11.1963 10.4813C10.9513 10.3675 10.75 10.495 10.75 10.7662V13.2338C10.75 13.505 10.9513 13.6325 11.1963 13.5188L14.0025 12.2087C14.2488 12.0938 14.2487 11.9063 14.0037 11.7913ZM12 0C5.3725 0 0 5.3725 0 12C0 18.6275 5.3725 24 12 24C18.6275 24 24 18.6275 24 12C24 5.3725 18.6275 0 12 0ZM12 16.875C5.8575 16.875 5.75 16.3213 5.75 12C5.75 7.67875 5.8575 7.125 12 7.125C18.1425 7.125 18.25 7.67875 18.25 12C18.25 16.3213 18.1425 16.875 12 16.875Z" fill="#ECF1F0"/>
</g>
<defs>
<clipPath id="clip0_245_986">
<rect width="24" height="24" fill="white"/>
</clipPath>
</defs>
</svg>

<svg id="twt" width="24" height="24" viewBox="0 0 24 24" fill="none" xmlns="http://www.w3.org/2000/svg">
<g clip-path="url(#clip0_245_990)">
<path d="M12 0C5.3725 0 0 5.3725 0 12C0 18.6275 5.3725 24 12 24C18.6275 24 24 18.6275 24 12C24 5.3725 18.6275 0 12 0ZM16.8813 9.83C16.8862 9.9325 16.8875 10.035 16.8875 10.135C16.8875 13.26 14.5113 16.8612 10.1638 16.8612C8.87912 16.8634 7.62121 16.4944 6.54125 15.7987C6.725 15.8212 6.91375 15.83 7.105 15.83C8.2125 15.83 9.23125 15.4538 10.04 14.8188C9.54715 14.8091 9.06959 14.6459 8.67389 14.3519C8.27819 14.0579 7.98406 13.6478 7.8325 13.1788C8.18644 13.2461 8.55106 13.2319 8.89875 13.1375C8.36381 13.0293 7.88275 12.7395 7.53714 12.3171C7.19152 11.8947 7.00263 11.3658 7.0025 10.82V10.7913C7.32125 10.9675 7.68625 11.075 8.07375 11.0875C7.57225 10.7537 7.21723 10.2408 7.08131 9.65392C6.94538 9.06699 7.03881 8.45032 7.3425 7.93C7.93619 8.66 8.67658 9.25718 9.51571 9.68289C10.3548 10.1086 11.274 10.3533 12.2137 10.4012C12.0943 9.89414 12.1457 9.36176 12.36 8.88688C12.5743 8.412 12.9395 8.02124 13.3988 7.77533C13.8582 7.52942 14.3858 7.44215 14.8999 7.52709C15.4139 7.61203 15.8855 7.86441 16.2412 8.245C16.7702 8.14034 17.2775 7.94632 17.7413 7.67125C17.565 8.21892 17.1958 8.68397 16.7025 8.98C17.1711 8.92356 17.6286 8.7976 18.06 8.60625C17.7431 9.08112 17.3439 9.49555 16.8813 9.83Z" fill="#ECF1F0"/>
</g>
<defs>
<clipPath id="clip0_245_990">
<rect width="24" height="24" fill="white"/>
</clipPath>
</defs>
</svg>
